<?xml version="1.0" encoding="utf-8"?>
<!-- Generator: Adobe Illustrator 19.0.0, SVG Export Plug-In . SVG Version: 6.00 Build 0)  -->
<svg version="1.1" id="Logo" xmlns="http://www.w3.org/2000/svg" xmlns:xlink="http://www.w3.org/1999/xlink" x="0px" y="0px"
	 viewBox="607 -64.4 1814.2 669.1" style="enable-background:new 607 -64.4 1814.2 669.1;" xml:space="preserve">
<style type="text/css">
	.st0{fill:#434343;}
</style>
<g>
	<path class="st0" d="M1044.3,93.8c-40.4-19.4-81.3,4.2-102.8,31.5c-13.1,17.8-20.4,47.7-19.4,90.2c-2.6,60.8,24.6,150.5,24.6,150.5
		l55.6-14.7l-30.4,77.1l13.6,9.4l51.4-124.8l-47.2,13.1c0,0-24.6-53.5-15.2-125.8c4.2-48.2,28.8-75.5,53-70.8
		c24.6,7.3,35.1,48.2,13.1,79.2c-22,30.9-57.7,45.1-57.7,45.1l2.1,18.9c0,0,110.1-36.7,102.8-125.8
		C1085.2,126.3,1070,105.4,1044.3,93.8z"/>
	<path class="st0" d="M871.3,385.4c0,0-30.9-82.8-33-163.1c-2.1-25.7-3.7-108,27.8-122.2c5.8-9.4,14.7-16.3,14.7-16.3
		s-79.7-6.3-75.5,140c7.9,98,27.3,143.1,27.3,143.1l-49.8,13.6l80.7,62.9l5.8-13.6l-43.5-32L871.3,385.4z"/>
	<path class="st0" d="M939.9,377.5C898.5,234.4,907.4,162,927.3,119c22.5-48.2,54.5-35.1,54.5-35.1s12.6-5.2,26.7-5.2
		c1-4.7-55.6-45.6-114.3,1c-93.9,81.8-10.5,312-10.5,312l-37.2,10l94.4,70.8L987.6,364L939.9,377.5z"/>
	<path class="st0" d="M983.5,196.1l-2.1,18.4c0,0,51.9-26.7,40.9-77.6c-5.8,0.5-18.4,7.3-20.4,9.4
		C1006.5,181.4,983.5,196.1,983.5,196.1z"/>
	<g>
		<path class="st0" d="M1211,157.3h-60.8V367h30.4v-82.8h29.9c41.4,0,73.9-18.9,73.9-63.4C1285,176.1,1252.4,157.3,1211,157.3z
			 M1211,256.4h-29.9v-70.8h29.9c23.1,0,43.5,9.4,43.5,35.7C1254.5,247.5,1234.1,256.4,1211,256.4z"/>
		<path class="st0" d="M1424.4,298.3c0,25.2-13.6,44.6-39.8,44.6c-26.2,0-39.8-19.4-39.8-44.6v-141h-30.4v142.1
			c0,20.4,5.8,39.8,21.5,54c13.1,12.1,30.9,17.8,48.8,17.8c17.8,0,35.7-5.8,48.8-17.8c15.7-13.6,21.5-33.6,21.5-54V157.3h-30.4v141
			H1424.4z"/>
		<path class="st0" d="M1520.9,210.2c0-15.2,12.6-28.8,27.8-28.8c18.4,0,29.4,12.1,29.4,30.4h30.4c0-35.7-25.2-58.2-59.8-58.2
			c-32,0-58.7,24.1-58.7,57.2c0,40.9,26.2,50.3,58.7,62.9c17.3,6.8,33.6,12.1,33.6,34.1c0,20.4-12.6,35.7-33.6,35.7
			c-22,0-34.1-17.3-34.1-37.8h-30.4c0,37.8,26.2,66.1,64.5,66.1c37.2,0,64.5-25.7,64.5-63.4C1613.2,228.1,1520.9,254.8,1520.9,210.2
			z"/>
		<polygon class="st0" points="1762.1,248 1675.6,248 1675.6,157.3 1645.2,157.3 1645.2,367 1675.6,367 1675.6,275.8 1762.1,275.8 
			1762.1,367 1792.5,367 1792.5,157.3 1762.1,157.3 		"/>
		<polygon class="st0" points="1835.5,367 1948.2,367 1948.2,338.7 1865.9,338.7 1865.9,275.2 1948.2,275.2 1948.2,246.9 
			1865.9,246.9 1865.9,185.6 1948.2,185.6 1948.2,157.3 1835.5,157.3 		"/>
		<path class="st0" d="M2086.1,284.7c27.3-9.4,39.8-32,39.8-60.3c0-18.4-5.8-36.7-19.4-49.8c-14.7-14.7-36.2-17.3-55.6-17.3h-65V367
			h30.4v-97h0.5l69.2,97h38.3l-58.7-78.1C2072.5,288.9,2079.8,287.3,2086.1,284.7z M2016.4,265.8v-80.2h32.5
			c24.1,0,46.7,12.6,46.7,39.3c0,33.6-30.4,40.9-57.7,40.9H2016.4z"/>
	</g>
</g>
</svg>
