<?xml version="1.0" encoding="utf-8"?>
<!-- Generator: Adobe Illustrator 19.1.0, SVG Export Plug-In . SVG Version: 6.00 Build 0)  -->
<svg version="1.1" id="Logo" xmlns="http://www.w3.org/2000/svg" xmlns:xlink="http://www.w3.org/1999/xlink" x="0px" y="0px"
	 viewBox="407 166.9 1814.2 669.1" style="enable-background:new 407 166.9 1814.2 669.1;" xml:space="preserve">
<style type="text/css">
	.st0{fill:#FFFFFF;}
</style>
<g>
	<path class="st0" d="M873.3,317.7c-40.4-19.4-81.3,4.2-102.8,31.5c-13.1,17.8-20.4,47.7-19.4,90.2c-2.6,60.8,24.6,150.5,24.6,150.5
		l55.6-14.7l-30.4,77.1l13.6,9.4l51.4-124.8L818.7,550c0,0-24.6-53.5-15.2-125.8c4.2-48.2,28.8-75.5,53-70.8
		c24.6,7.3,35.1,48.2,13.1,79.2c-22,30.9-57.7,45.1-57.7,45.1l2.1,18.9c0,0,110.1-36.7,102.8-125.8
		C914.2,350.2,899,329.3,873.3,317.7z"/>
	<path class="st0" d="M700.3,609.3c0,0-30.9-82.8-33-163.1c-2.1-25.7-3.7-108,27.8-122.2c5.8-9.4,14.7-16.3,14.7-16.3
		s-79.7-6.3-75.5,140c7.9,98,27.3,143.1,27.3,143.1l-49.8,13.6l80.7,62.9l5.8-13.6l-43.5-32L700.3,609.3z"/>
	<path class="st0" d="M768.9,601.4c-41.4-143.1-32.5-215.5-12.6-258.5c22.5-48.2,54.5-35.1,54.5-35.1s12.6-5.2,26.7-5.2
		c1-4.7-55.6-45.6-114.3,1c-93.9,81.8-10.5,312-10.5,312l-37.2,10l94.4,70.8l46.7-108.5L768.9,601.4z"/>
	<path class="st0" d="M812.5,420l-2.1,18.4c0,0,51.9-26.7,40.9-77.6c-5.8,0.5-18.4,7.3-20.4,9.4C835.5,405.3,812.5,420,812.5,420z"
		/>
	<g>
		<path class="st0" d="M1040,381.2h-60.8v209.7h30.4v-82.8h29.9c41.4,0,73.9-18.9,73.9-63.4C1114,400,1081.4,381.2,1040,381.2z
			 M1040,480.3h-29.9v-70.8h29.9c23.1,0,43.5,9.4,43.5,35.7C1083.5,471.4,1063.1,480.3,1040,480.3z"/>
		<path class="st0" d="M1253.4,522.2c0,25.2-13.6,44.6-39.8,44.6c-26.2,0-39.8-19.4-39.8-44.6v-141h-30.4v142.1
			c0,20.4,5.8,39.8,21.5,54c13.1,12.1,30.9,17.8,48.8,17.8c17.8,0,35.7-5.8,48.8-17.8c15.7-13.6,21.5-33.6,21.5-54V381.2h-30.4v141
			H1253.4z"/>
		<path class="st0" d="M1349.9,434.1c0-15.2,12.6-28.8,27.8-28.8c18.4,0,29.4,12.1,29.4,30.4h30.4c0-35.7-25.2-58.2-59.8-58.2
			c-32,0-58.7,24.1-58.7,57.2c0,40.9,26.2,50.3,58.7,62.9c17.3,6.8,33.6,12.1,33.6,34.1c0,20.4-12.6,35.7-33.6,35.7
			c-22,0-34.1-17.3-34.1-37.8h-30.4c0,37.8,26.2,66.1,64.5,66.1c37.2,0,64.5-25.7,64.5-63.4C1442.2,452,1349.9,478.7,1349.9,434.1z"
			/>
		<polygon class="st0" points="1591.1,471.9 1504.6,471.9 1504.6,381.2 1474.2,381.2 1474.2,590.9 1504.6,590.9 1504.6,499.7 
			1591.1,499.7 1591.1,590.9 1621.5,590.9 1621.5,381.2 1591.1,381.2 		"/>
		<polygon class="st0" points="1664.5,590.9 1777.2,590.9 1777.2,562.6 1694.9,562.6 1694.9,499.1 1777.2,499.1 1777.2,470.8 
			1694.9,470.8 1694.9,409.5 1777.2,409.5 1777.2,381.2 1664.5,381.2 		"/>
		<path class="st0" d="M1915.1,508.6c27.3-9.4,39.8-32,39.8-60.3c0-18.4-5.8-36.7-19.4-49.8c-14.7-14.7-36.2-17.3-55.6-17.3h-65
			v209.7h30.4v-97h0.5l69.2,97h38.3l-58.7-78.1C1901.5,512.8,1908.8,511.2,1915.1,508.6z M1845.4,489.7v-80.2h32.5
			c24.1,0,46.7,12.6,46.7,39.3c0,33.6-30.4,40.9-57.7,40.9H1845.4z"/>
	</g>
</g>
</svg>
